<svg width="48" height="19" viewBox="0 0 48 19" fill="none" xmlns="http://www.w3.org/2000/svg">
<path fill-rule="evenodd" clip-rule="evenodd" d="M0 0V1.29992H9.24576V0H0ZM10.5557 0V1.29992H23.7315C23.7315 1.29992 22.3856 0 20.6031 0H10.5557ZM26.3161 0V1.29992H34.2872L33.8141 0H26.3161ZM40.002 0L39.5289 1.29992H47.4276V0H40.002ZM0 2.52802V3.82793H9.24576V2.52802H0ZM10.5557 2.52994V3.82805H25.2603C25.2603 3.82805 25.0886 2.82749 24.789 2.52994H10.5557ZM26.3161 2.52994V3.82805H35.1611L34.7232 2.52994H26.3161ZM39.0557 2.52994L38.6178 3.82805H47.4276V2.52994H39.0557ZM2.65706 5.05604V6.35787H6.66108V5.05604H2.65706ZM13.2128 5.05604V6.35787H17.2169V5.05604H13.2128ZM21.1115 5.05604V6.35787H25.1156C25.1156 6.35787 25.3699 5.67037 25.3699 5.05604H21.1115ZM28.9732 5.05604V6.35787H36.0722L35.599 5.05604H28.9732ZM38.1837 5.05604L37.7087 6.35787H44.8429V5.05604H38.1837ZM2.65706 7.58609V8.88601H6.66108V7.58609H2.65706ZM13.2128 7.58609V8.88601H23.4401C23.4401 8.88601 24.2957 8.21897 24.5682 7.58609H13.2128ZM28.9732 7.58609V8.88601H32.9772V8.16231L33.2315 8.88601H40.5661L40.8389 8.16231V8.88601H44.8429V7.58609H37.3264L36.9275 8.68707L36.5267 7.58609H28.9732ZM2.65706 10.1141V11.414H6.66108V10.1141H2.65706ZM13.2128 10.1141V11.414H24.5682C24.2957 10.7832 23.4401 10.1141 23.4401 10.1141H13.2128ZM28.9732 10.1141V11.414H32.9772V10.1141H28.9732ZM33.7045 10.1141L34.1888 11.414H39.6884L40.1486 10.1141H33.7045ZM40.8388 10.1141V11.414H44.8429V10.1141H40.8388ZM2.65706 12.6421V13.942H6.66108V12.6421H2.65706ZM13.2128 12.6421V13.942H17.2169V12.6421H13.2128ZM21.1115 12.6421V13.942H25.3697C25.3697 13.3285 25.1156 12.6421 25.1156 12.6421H21.1115ZM28.9732 12.6421V13.942H32.9772V12.6421H28.9732ZM34.6138 12.6421L35.0832 13.942H38.7701L39.2431 12.6421H34.6138ZM40.8388 12.6421V13.942H44.8429V12.6421H40.8388ZM0.0723809 15.1701V16.472H9.31814V15.1701H0.0723809ZM10.5557 15.1701V16.472H24.789C25.0886 16.1739 25.2603 15.1701 25.2603 15.1701H10.5557ZM26.3885 15.1701V16.472H32.9772V15.1701H26.3885ZM35.5248 15.1701L36.0071 16.472H37.8831L38.3358 15.1701H35.5248ZM40.8388 15.1701V16.472H47.5V15.1701H40.8388ZM0.0723809 17.7001V19H9.31814V17.7001H0.0723809ZM10.5557 17.7001V18.9982H20.6031C22.3856 18.9982 23.7315 17.7001 23.7315 17.7001H10.5557ZM26.3885 17.7001V19H32.9772V17.7001H26.3885ZM36.4395 17.7001L36.9034 18.9964L36.9832 18.9982L37.4545 17.7001H36.4395ZM40.8388 17.7001V19H47.5V17.7001H40.8388Z" fill="white"/>
</svg>
